<?xml version="1.0" standalone="no"?>
<!DOCTYPE svg PUBLIC "-//W3C//DTD SVG 1.1//EN" "http://www.w3.org/Graphics/SVG/1.1/DTD/svg11.dtd">
<svg xmlns="http://www.w3.org/2000/svg">
<metadata>Generated by Fontastic.me</metadata>
<defs>
<font id="materials-project" horiz-adv-x="512">
<font-face font-family="materials-project" units-per-em="512" ascent="480" descent="-32"/>
<missing-glyph horiz-adv-x="512" />

<glyph glyph-name="fantastic-loading" unicode="&#97;" d="M244 178c-10 48 3 89 38 124-5 6-9 12-14 17-9 12-18 23-27 34-1 1-2 2-4 1-45-13-91 16-99 62-8 42 21 83 64 90 43 8 84-21 90-64 3-19 0-37-10-54-1 0-1-1-1-1 4-6 8-11 13-16 10-14 21-27 31-40 2-2 3-3 6-2 51 13 95 1 130-37 18-19 28-42 31-68 8-65-34-126-97-139-48-10-89 4-123 40-1 1-2 1-3 0-31-13-61-27-91-40-2-1-3-2-3-4-1-36-26-66-60-74-43-11-87 18-95 61-8 43 19 83 62 92 26 5 50-2 69-21 2-1 2-2 4-1 29 13 58 26 88 39 0 1 1 1 1 1z m26 222c12 22 10 55-14 77-24 20-59 20-83-2-23-20-27-55-10-81 9-12 21-21 36-25 9-2 19-3 29-1-3 5-6 8-9 12-8 10-7 21 0 31 11 12 31 16 43 0 2-4 5-7 8-11z m-133-270c-21 19-54 20-77 3-24-18-32-50-20-76 13-27 43-42 72-35 30 7 45 34 47 54-4-2-7-3-10-4-7-3-14-4-20-1-10 4-16 12-18 22-3 14 2 27 16 33 3 1 7 3 10 4z m112 33c-1-1-1-1-1-1-39-17-77-34-116-52-4-1-6-5-6-9 0-4 1-8 4-11 3-5 7-6 13-3 36 16 73 32 109 48 3 2 6 3 9 4-5 8-8 16-12 24z m63 159c-1 1-1 1-1 2-21 26-42 52-63 78-3 4-6 5-12 2-1-1-3-2-4-3-3-4-3-7 0-11 17-21 34-42 51-64 4-5 7-9 11-14 6 3 12 7 18 10z"/>
<glyph glyph-name="fontastic-toolkit" unicode="&#98;" d="M79 336c-3-3-4-7-6-11-1-5-1-9-1-13 0-4 0-6-1-6-1-1-4-3-9-8-5-4-8-7-9-8-6-5-11-4-15 2 0 0-36 39-36 39-3 4-3 8 1 12 1 1 4 3 10 7 5 4 8 7 10 8 2 2 6 3 14 3 7 0 13 3 19 8 4 4 7 11 9 19 1 8 3 13 5 15 1 0 2 2 5 4 2 2 6 6 13 11 6 5 13 11 21 16 46 31 77 47 95 49 42 0 67 0 76-1 4 0 3-1-4-4-41-18-67-31-78-39-27-19-34-38-19-58 12-16 19-24 20-25 3-2 2-5-1-7-1-1-7-6-20-18-12-11-18-17-19-18-5-2-8-3-9-2-15 17-27 27-37 31-9 4-21 2-34-6m147-13c0 0 209-244 209-244 7-8 6-14-1-20 0 0-24-21-24-21-8-5-14-4-20 2 0 0-212 242-212 242-2 2-2 6 0 10 0 0 37 32 37 32 4 2 8 2 11-1m283 103c6-36 3-64-8-85-17-30-43-41-79-32-19 4-36-1-51-16 0 0-42-40-42-40 0 0-35 40-35 40 0 0 35 36 35 36 8 8 13 17 16 27 2 10 3 21 3 33 0 12 0 22 2 30 5 19 28 38 72 57 4 2 7 2 9-1 2-3 3-6 1-8-4-4-12-18-23-41-5-3-7-9-6-18 0-8 7-18 20-27 20-14 36-10 49 11 2 4 7 11 14 21 6 10 10 16 11 17 1 3 4 5 7 5 3-1 5-4 5-9m-439-350c0 0 130 127 130 127 0 0 39-44 39-44 0 0-126-124-126-124-7-7-13-8-20-2 0 0-23 23-23 23-8 6-8 13 0 20"/>
<glyph glyph-name="fontastic-phase-diagram" unicode="&#99;" d="M505 56l-239 420c-2 4-5 6-10 6-1 1-3 1-4 1-5 0-9-2-11-6l-72-136-159-279c-3-3-5-8-5-12 0-1 0-2 0-4l0-2c0-2 0-4 1-5 2-5 6-10 11-10l478 0c6 0 10 8 11 10 2 5 2 13-1 17z m-410 5l311 115 65-115z m-26 52l92 162 63-25z m108 187l13 25 66 116 128-225z m188-108l-281-102 168 148z"/>
<glyph glyph-name="fontastic-pourbaix-diagram" unicode="&#100;" d="M64 474l-62 39c-3 2-5 3-8 3-6 0-11-3-14-8-2-3-3-8-2-12 1-4 4-8 7-10l113-70 0-68-99 36c-2 1-3 1-5 1-7 0-13-4-15-10-3-9 1-18 9-21l121-44 199-109 44-30-197 47-156 61c-1 1-3 1-5 1-7 0-13-4-15-10-3-8 1-17 9-21l145-56 0-195c0-9 7-16 16-16 9 0 16 7 16 16l0 185 256-60c2-1 3-1 4-1 1 0 1 0 2 0l85-38c2-1 4-2 6-2 7 0 12 4 15 10 3 8 0 17-8 21l-86 39-109 73 0 46 179-68c1-1 3-1 5-1 7 0 13 4 15 10 3 8-1 17-9 20l-190 73-208 133-26 16z m66-139l0 61 168-108 0-45z"/>
<glyph glyph-name="fontastic-nanoporous" unicode="&#101;" d="M97 0l-5 15c0 2-8 25-30 46-23 23-47 32-47 32l-15 5 0 324 16 3c4 2 25 8 46 28 22 22 30 42 30 44l5 15 318 0 4-14c3-6 11-25 31-45 21-19 42-26 46-28l16-3 0-324-15-5c-4-2-26-11-47-32-22-22-30-46-30-46l-5-15z m288 42c6 13 17 32 35 50 18 18 37 29 49 35l0 36c-2 0-5 0-7 0-9 0-18 2-27 6-5 2-9 5-14 8-6-2-13-5-19-9-10-5-20-12-29-21-9-9-18-20-24-32-4-8-7-17-9-25 3-4 6-8 8-12 4-8 6-17 6-27 0-3 0-6-1-9z m-77 0l3 7c0 1 0 1 0 2 0 3-1 6-2 9-1 2-4 5-7 8-5 5-11 9-19 11-8 3-17 5-27 5-10 0-19-2-27-5-8-2-14-6-19-11-2-1-3-2-3-3-1-1-2-3-3-4 0-1-1-3-1-4-1-1-1-2-2-3 0-1 0-2 0-3 0-1 0-2 1-4l0-3c1 0 1-1 1-2z m-149 0c-1 3-1 6-1 9 0 5 1 9 2 13 1 5 2 9 5 14 1 4 4 8 7 12-2 8-5 17-9 25-6 12-15 23-25 32-8 9-18 16-28 22-6 3-13 6-19 8-4-3-9-6-14-8-9-4-18-6-27-6-3 0-5 0-7 0l0-36c12-6 31-17 49-35 18-18 29-37 35-50z m97 84c14 0 29-2 42-7 2 0 4-1 5-2 3 6 5 12 8 17 9 16 20 31 33 44 11 11 24 20 37 28 5 2 9 5 14 7 0 1-1 3-2 4-2 6-3 12-4 19l-2 35c1 12 3 21 6 30 1 1 1 3 2 4-5 2-9 5-14 7-13 8-26 17-37 28-14 13-25 28-33 43-3 6-5 11-7 16-2 0-3-1-5-1-11-4-24-9-40-9l-24 2c-8 2-15 4-22 6-2 1-3 2-5 2-2-5-4-10-7-16-8-15-19-30-33-43-11-11-24-20-37-28-5-2-9-5-14-7 1-1 2-3 2-4 4-11 5-21 6-30l-3-43c-1-4-2-7-3-11-1-1-2-3-2-4 4-3 9-5 14-7 13-8 26-17 37-29 14-12 25-27 33-43 3-5 5-11 8-17 1 1 3 1 5 2 13 5 28 7 42 7z m-213 81c2-1 5-1 7-1 1 0 3 0 4 1 2 0 4 1 6 2 3 1 6 4 8 6l7 8c2 3 3 6 4 9 3 6 3 13 3 23l0 5c0 8 0 19-3 26-1 4-4 8-6 12l-4 3c-3 4-6 6-9 8-2 1-4 2-6 2-1 0-2 0-2 0-1 0-2 0-2 0-2 0-3 0-4 0-1-1-2-1-3-1z m420-1c2 0 4 0 5 1 0 0 1 0 1 0l0 103c0 1 0 1 0 1-2 0-4 1-6 1-2 0-4-1-5-1-2 0-4-1-6-2-3-2-6-4-8-7l-6-6c-2-3-4-7-5-10-3-7-3-18-3-26l0-5c0-10 0-17 3-23 1-4 3-7 6-12l2-1 3-4c3-2 5-5 8-6 1 0 4-1 9-2 0-1 1-1 2-1z m-413 149c9 0 18-2 27-6 5-2 10-5 14-8 6 2 13 5 19 8 10 6 20 13 28 22 10 9 19 20 25 32 4 8 7 16 9 24-3 4-5 8-8 12-4 9-6 18-6 27 0 1 0 2 0 4l-31 0c-6-12-17-29-35-47-18-17-36-27-49-33l0-36c2 1 5 1 7 1z m290 72c2-8 5-16 9-24 6-12 15-23 25-32 8-9 18-16 28-22 6-3 13-6 19-8 4 3 9 6 14 8 9 4 18 6 27 6 2 0 5 0 7-1l0 36c-12 5-31 15-49 33-17 17-28 34-35 47l-31 0c0-2 0-3 0-4 0-9-2-18-6-26-2-5-5-9-8-13z m-139 43c0-1 0-3 0-4 0-2 1-5 2-8 2-3 4-6 7-8l3-3c4-4 7-8 13-10 7-2 15-5 24-5 17 0 21 2 26 4 1 0 3 1 4 1 9 3 17 9 21 12 4 4 6 7 7 9 2 3 2 6 2 8 0 1 0 3 0 4z"/>
<glyph glyph-name="fontastic-battery" unicode="&#102;" d="M64 320l352 0 0-160-352 0z m-64 64l0-288 480 0 0 64 32 0 0 128-32 0 0 96z m256-192l128 96-128-32-32 32-128-96 128 32z"/>
<glyph glyph-name="fontastic-search" unicode="&#103;" d="M493 96l-125 125c18 29 29 62 29 99 0 106-86 192-192 192-106 0-192-86-192-192 0-106 86-192 192-192 36 0 70 11 99 28l125-124c9-9 23-9 32 0l32 32c9 9 9 23 0 32z m-288 96c-71 0-128 57-128 128 0 71 57 128 128 128 70 0 128-57 128-128 0-71-58-128-128-128z"/>
<glyph glyph-name="fontastic-reaction" unicode="&#104;" d="M439 116c6-9 9-20 9-32 0-28-16-52-63-52l-258 0c-47 0-63 24-63 52 0 12 3 23 9 32l49 73 48 73 2 3c13 20 20 45 20 71l0 92c0 0-15 30-15 39 0 9 6 13 15 13l127 0c9 0 16-3 16-12 0-9-15-20-15-40l0-92c0-26 6-51 19-71l3-4 48-72z m-30-45c3 3 7 8 7 14 0 5-2 10-4 14l-49 72 0 1-48 72c0 0-2 3-3 5-16 26-24 56-24 87l0 74c0 7 0 18 1 22 5 18 0 16-9 16l-47 0c-9 0-15 2-10-16 1-4 1-16 1-22l0-74c0-32-9-62-25-87l-3-5-47-73-49-73c-2-4-4-9-4-14 0-6 3-10 6-13 4-4 12-7 25-7l258 0c13 0 20 3 24 7z m-18 30l1-1c1-2 2-4 2-6 0-7-6-14-14-14l-248 0c-7 0-14 6-14 14 0 3 1 5 3 7l8 13 1 1 0 1 16 23 42 66 1 1 12 18 109 0 14-20 1-1 1-2 40-62 12-18z m-202 104l-1-1z m113-35c2-1 4-2 6-2 2 0 3 0 5 2 1 2 3 4 3 6 0 2-1 4-3 6-1 2-3 2-5 2-2 0-4 0-6-2-1-2-2-4-2-6 0-2 0-4 2-6z m36-56c2-2 5-4 7-4 1 0 3 0 4 1 4 2 4 7 2 11l-23 36c-1 2-4 4-7 4-2 0-3 0-4-1-4-2-5-7-3-11z m-150 91c-4-5 0 0 0 0z"/>
<glyph glyph-name="fontastic-thermo" unicode="&#105;" d="M323 259c21-12 39-29 52-50 13-21 19-45 19-71 0-38-13-71-40-98-27-27-60-40-98-40-38 0-71 13-98 40-27 27-40 60-40 98 0 26 6 50 19 71 13 21 31 38 52 50 0 0 0 227 0 227 0 17 7 26 21 26 0 0 87 0 87 0 7 0 13-3 18-8 5-5 8-11 8-18 0 0 0-227 0-227m-67-208c24 0 44 9 61 26 18 17 26 37 26 61 0 19-5 36-16 51-11 15-26 26-43 31 0 0 0 190 0 190 0 0-52 0-52 0 0 0 0-189 0-189-18-5-33-16-45-31-12-15-18-33-18-52 0-24 8-44 26-61 17-17 37-26 61-26"/>
<glyph glyph-name="fontastic-molecules" unicode="&#106;" d="M416 192c-2 0-4 0-6-1l-42 73-47 82c19 17 31 42 31 70 0 53-43 96-96 96-53 0-96-43-96-96 0-28 12-53 31-70l-47-82-42-73c-2 1-4 1-6 1-53 0-96-43-96-96 0-53 43-96 96-96 44 0 81 30 92 70l136 0c11-40 48-70 92-70 53 0 96 43 96 96 0 53-43 96-96 96z m-224 224c0 35 29 64 64 64 26 0 48-16 58-38-8 4-17 6-26 6-35 0-64-29-64-64 0-9 2-18 6-26-22 10-38 32-38 58z m-116-378c-23 10-38 32-38 58 0 35 28 64 64 64 26 0 48-16 58-38-8 4-17 6-26 6-36 0-64-29-64-64 0-9 2-18 6-26z m108 96c-5 13-13 23-23 32l39 66 50 89c2-1 4-1 6-1 2 0 4 0 6 1l51-89 38-66c-10-9-18-19-23-32z m168-38c0 35 29 64 64 64 26 0 48-16 58-38-8 4-17 6-26 6-35 0-64-29-64-64 0-9 2-18 6-26-22 10-38 32-38 58z"/>
<glyph glyph-name="fontastic-compare" unicode="&#107;" d="M448 151c0 0 0 153 0 201 0 48-48 96-96 96-32 0-32 0-32 0l0 64-96-96 96-96 0 64c0 0 16 0 32 0 16 0 32-16 32-32 0-16 0-201 0-201-19-11-32-32-32-55 0-36 29-64 64-64 36 0 64 28 64 64 0 23-13 44-32 55z m-32-87c-17 0-32 14-32 32 0 17 15 32 32 32 18 0 32-15 32-32 0-18-14-32-32-32z m-224 64c0 0-16 0-32 0-16 0-32 16-32 32 0 16 0 201 0 201 19 11 32 31 32 55 0 35-28 64-64 64-35 0-64-29-64-64 0-24 13-44 32-55 0 0 0-153 0-201 0-48 48-96 96-96 32 0 32 0 32 0l0-64 96 96-96 96z m-96 256c-17 0-32 14-32 32 0 17 15 32 32 32 18 0 32-15 32-32 0-18-14-32-32-32z"/>
<glyph glyph-name="fontastic-rfb" unicode="&#108;" d="M446 85c2-4 3-10 0-14-3-4-8-7-13-7l-355 0c-5 0-9 3-12 7-3 4-2 10 0 14l118 199 0 150c0 8 6 14 14 14 8 0 15-6 15-14l0-80c4 3 10 5 16 5 15 0 27-12 27-27 0-15-12-26-27-26-6 0-12 2-16 5l0-31c0-2-1-4-2-6l-35-59 72 0c-15 6-26 20-26 37 0 23 19 42 43 42 15 0 27-8 35-19-1 2-1 3-1 5l0 154c0 8 6 14 14 14 8 0 15-6 15-14l0-150z m-164 130l53 0-31 54c2-5 3-11 3-17 0-17-10-31-25-37z m-17 168c-12 0-22 9-22 21 0 12 10 21 22 21 12 0 22-9 22-21 0-12-10-21-22-21z"/>
<glyph glyph-name="fontastic-struct-predictor" unicode="&#109;" d="M511 256c0 140-114 254-255 254-60 0-116-21-159-56-17 11-40 11-57-3-21-17-24-47-7-68 1-1 1-1 2-2-21-37-33-80-33-125 0-140 114-254 254-254 55 0 106 17 148 47 15-10 36-10 52 3 17 14 21 39 8 58 30 41 47 92 47 146z m-480 0c0 40 11 78 29 111 14-3 29 0 41 9 16 14 21 36 14 55 39 32 88 51 142 51 124 0 225-102 225-226 0-48-15-92-40-128-14 4-30 2-42-8-15-12-20-31-14-48-37-26-81-41-129-41-125-1-226 101-226 225z m329 95c13 0 19-9 12-21l-104-180c-7-12-17-12-24 0l-104 180c-7 12-1 21 12 21z"/>
<glyph glyph-name="fontastic-xas" unicode="&#110;" d="M372 246z m-7-6c-5-2-11-2-16 0-7 5-8 9-8 23 0 1 0 2 0 3-4-1-8-4-17-9-21-13-31-16-45-9-10 6-13 16-15 41 0 1 0 1 0 3-1 10-1 15-2 18-2-3-5-11-9-26-9-30-14-40-29-43-15-3-29 22-35 48-4 16-5 41-5 78 0 7 0 13 0 21-17-72-26-134-29-189-1-26-2-48-1-71 1-10 2-39 2-45 1-27-7-38-32-36-10 1-83 16-112 22l3 20c31-6 102-21 111-22 11-1 11-1 10 16 0 5-2 34-2 44-1 24-1 47 1 73 4 71 17 153 44 251 3 13 4 16 12 17 5 0 9-2 11-5 1-2 1-3 1-5 1-2 1-4 1-7 1-8 1-16 0-49 0-15 0-25 0-35 0-35 1-60 4-74 2-8 6-18 10-25 2-3 3-5 4-6 3 3 6 11 11 27 9 32 14 42 29 44 11 1 17-6 19-16 2-6 2-11 3-23 0-2 0-2 1-4 0-9 1-14 2-18 1-4 2-6 2-6 5-2 10-1 24 8 13 8 18 11 26 12 4 1 7 1 10 1 7-1 10-6 12-13 0-3 0-5 0-10 8 5 14 8 22 4 4-2 7-6 8-11 1-3 1-5 1-10 1-2 1-4 1-5 19-7 36-11 72-18 19-3 28-5 39-7l-5-20c-10 2-18 4-38 7-39 7-57 11-78 21-5 2-8 6-9 11-1 3-1 5-2 9-3-2-5-3-7-5z"/>
<glyph glyph-name="fontastic-interface" unicode="&#111;" d="M51 512l103 0 0-410-103 0z m154 0l256 0 0-410-256 0z"/>
<glyph glyph-name="fontastic-alloy" unicode="&#112;" d="M404 313c3 12 4 23 4 35 0 84-68 152-152 152-84 0-152-68-152-152 0-12 1-24 4-36-64-19-108-78-108-145 0-84 68-153 152-153 40 0 77 15 105 42 29-27 66-42 105-42 84 0 152 69 152 152 0 69-44 128-110 147z m-282-9c1 0 3 1 4 1l-3-3c0 1-1 1-1 2z m169-111l-6 5z m2-27c0-4 0-9 0-13l-54-54c-2 3-4 6-5 9l59 60c0 0 0-1 0-2z m-45 102l-49-49c-4 1-6 3-9 4l51 52c3-2 6-4 8-6z m38-28l67 68c3 0 6 0 9 0 2 0 4 0 6 0l-78-78c-1 4-3 7-4 10z m-10 17l45 44c5 2 12 4 18 4l-57-57c-3 3-4 6-6 9z m-11 12c11 10 22 18 35 24l-30-30c-1 2-3 4-5 6z m-40-71c2 0 4 0 6-1l-8-7c0 3 1 5 2 8z m36-3l3-2 4 3c5 1 11 1 16 2l-60-60c-1 4-2 8-2 12l42 42z m32-15l-63-63c-1 3-3 7-4 10l64 64c1-3 2-7 3-11z m4 33c-1 3-1 6-3 9l85 84c3-1 7-1 11-2 0 0-1-1-1-1l-88-88c-1-1-3-1-4-2z m-63 68l-52-53c-3 2-6 4-9 6l53 53c3-2 6-4 8-6z m-16 10l-52-52c-2 2-5 4-7 7l50 50c3-2 6-3 9-5z m-52-11l23 23c3-2 6-3 11-4l-48-47c-2 2-4 5-6 7z m-25-13c-2 3-4 6-6 9l31 31c4 0 9-1 13-2z m-10 16c-2 3-3 7-5 10l6 6 8 8c4 1 8 1 12 1 1 0 2 0 3 0z m94-51c-3-7-6-13-8-20-3 1-6 2-9 3z m-4-66c0 3 0 7 1 10l16 16-5 5 5-5 3 3c5 0 9 0 14 0l-34-34c0 2 0 4 0 5z m22-75l47 47c-1-7-3-13-5-19l-36-36c-2 3-4 5-6 8z m16-10l14 14c-4-8-10-15-16-22-2 1-2 2-3 3z m63 143l57 57c-12-24-32-44-57-57z m-66 265c77 0 141-64 141-141 0-11-1-21-4-32-10 2-21 3-31 3-39 0-76-14-104-41-29 26-65 41-105 41-11 0-22-1-34-4-2 11-4 22-4 33 0 77 63 141 141 141z m-104-463c-78 0-140 63-140 140 0 62 40 117 99 135 16-48 54-86 103-100-3-12-4-24-4-35 0-38 14-74 40-102-27-24-61-38-98-38z m210 0c-36 0-71 13-97 38 26 28 40 65 40 102 0 12-1 24-4 35 48 15 85 53 100 100 60-17 102-72 102-135 0-77-63-140-141-140z"/>
<glyph glyph-name="fontastic-magnetism" unicode="&#113;" d="M395 240c-6 5-13 8-21 8-9 0-16-3-22-8l-108-108c-11-12-26-18-42-18-16 0-31 6-42 17-11 11-18 26-18 42 0 17 7 33 19 45l106 107c12 11 12 31 0 43l-38 37c-5 6-13 9-21 9-8 0-16-3-22-9l-105-105c-68-68-70-178-5-246 33-35 78-54 126-54 46 0 90 18 123 51l108 108c12 12 12 31 0 43z m-197 153c3 3 6 4 10 4 3 0 7-1 9-4l38-38c5-5 5-13 0-18l-53-53-25 25-31 32z m223-222l-53-52-56 56 52 52c5 5 14 5 19 0l38-37c5-5 5-14 0-19z m-109 339c0 0 0-1 0-1l-13-47-20 26c-1 1-2 1-3 1-1 0-2-1-2-2l-14-86c0-2 0-4 1-5 1-1 3-2 4-2 1 0 3 1 4 4l14 46 23-28c1-1 2-1 3-1 2 0 2 1 2 3l9 85c0 2 0 6-2 8 0 1-1 1-2 1-1 0-3 0-4-2z m165-156c-1 0-2-1-3-3 0 0-1 0-1 0l-12-47-21 26c0 0-2 1-3 1-1-1-2-2-2-3l-13-85c-1-2 0-4 1-5 1-2 2-2 3-2 2 0 3 1 4 3l15 47 23-28c1-1 2-2 3-1 1 0 2 1 2 2l8 86c1 2 0 5-1 7-1 1-2 2-3 2z"/>
<glyph glyph-name="fontastic-dashboard" unicode="&#114;" d="M110 183c0 10-4 19-11 26-7 7-16 10-26 10-10 0-19-3-26-10-7-7-10-16-10-26 0-10 3-19 10-26 7-7 16-11 26-11 10 0 19 4 26 11 7 7 11 16 11 26z m55 128c0 10-4 19-11 26-7 7-16 10-26 10-10 0-19-3-26-10-7-7-11-16-11-26 0-10 4-19 11-26 7-7 16-11 26-11 10 0 19 4 26 11 7 7 11 16 11 26z m122-138l29 110c1 5 0 9-2 13-3 5-7 8-11 9-5 1-10 1-14-2-5-3-7-6-9-11l-29-109c-11-1-21-6-30-13-9-7-15-17-18-28-4-15-2-29 6-42 7-13 18-21 33-25 15-4 29-2 42 6 13 7 21 18 25 33 3 11 3 23-2 33-4 11-11 20-20 26z m188 10c0 10-3 19-10 26-7 7-16 10-26 10-10 0-19-3-26-10-7-7-11-16-11-26 0-10 4-19 11-26 7-7 16-11 26-11 10 0 19 4 26 11 7 7 10 16 10 26z m-182 183c0 10-4 18-11 26-7 7-16 10-26 10-10 0-19-3-26-10-7-8-11-16-11-26 0-10 4-19 11-26 7-7 16-11 26-11 10 0 19 4 26 11 7 7 11 16 11 26z m128-55c0 10-4 19-11 26-7 7-16 10-26 10-10 0-19-3-26-10-7-7-11-16-11-26 0-10 4-19 11-26 7-7 16-11 26-11 10 0 19 4 26 11 7 7 11 16 11 26z m91-128c0-50-13-96-40-138-4-6-9-8-16-8l-400 0c-7 0-12 2-16 8-27 42-40 88-40 138 0 35 7 68 20 99 14 32 32 59 55 82 23 23 50 41 82 55 31 13 64 20 99 20 35 0 68-7 99-20 32-14 59-32 82-55 23-23 41-50 55-82 13-31 20-64 20-99z"/>
<glyph glyph-name="fontastic-docs" unicode="&#115;" d="M487 375c7-10 9-23 5-36l-79-259c-3-12-11-23-22-31-11-8-22-12-35-12l-263 0c-15 0-29 5-43 15-13 10-23 23-28 37-5 13-5 25-1 37 0 0 0 3 1 7 1 5 1 8 1 11 0 2 0 4-1 6 0 3-1 5-1 6 1 2 2 4 3 6 1 2 2 4 4 6 2 3 4 5 5 7 5 7 9 16 13 26 4 10 7 19 9 26 0 2 0 5-1 9 0 4 0 6 0 8 1 2 2 5 5 8 3 3 4 5 5 7 4 6 8 15 12 26 4 11 6 19 7 26 0 1 0 4-1 9 0 4 0 7 0 8 1 2 3 5 7 8 3 4 5 6 6 7 3 5 8 13 12 24 4 11 7 20 8 28 0 1 0 4-1 7-1 3-1 6-1 7 1 2 2 4 3 6 1 1 3 4 5 6 2 3 4 5 5 6 2 2 3 5 5 9 1 3 3 7 4 10 1 3 3 6 5 10 1 4 3 7 5 9 2 3 5 5 8 7 3 2 6 3 10 3 4 0 8 0 14-1l-1-1c8 2 12 2 15 2l217 0c14 0 25-5 33-16 7-10 9-23 5-37l-78-259c-7-22-14-37-21-43-6-7-19-10-36-10l-249 0c-5 0-8-2-11-5-2-3-2-7 0-12 5-13 18-20 41-20l264 0c6 0 11 2 16 5 5 3 8 6 10 11l86 282c1 5 2 10 1 17 7-3 13-7 17-13z m-304 0c-1-3-1-5 0-7 1-1 3-2 6-2l174 0c2 0 4 1 7 2 2 2 4 4 5 7l6 18c0 3 0 5-1 7-1 1-3 2-6 2l-173 0c-3 0-5-1-8-2-2-2-4-4-4-7z m-24-73c-1-3-1-5 0-7 2-2 3-2 6-2l174 0c2 0 5 0 7 2 3 2 4 4 5 7l6 18c1 2 0 5-1 6-1 2-3 3-5 3l-174 0c-3 0-5-1-7-3-3-1-4-4-5-6z"/>
<glyph glyph-name="fantastic-forum" unicode="&#116;" d="M402 293c0-27-9-51-27-74-17-22-42-40-73-53-31-13-64-20-101-20-16 0-33 2-50 5-24-17-50-29-80-37-6-1-15-3-24-4l-1 0c-2 0-4 0-6 2-2 2-3 4-3 6 0 1 0 1 0 2 0 1 0 1-1 2 0 0 1 1 1 1l1 2 1 1 1 2 1 1 1 2c1 1 3 3 7 7 3 3 6 6 7 8 2 2 4 5 7 8 2 4 5 8 7 11 2 4 4 8 6 13-24 14-42 31-56 51-14 20-20 41-20 64 0 26 9 51 27 73 17 22 42 40 73 53 31 13 64 20 101 20 36 0 70-7 101-20 31-13 55-31 73-53 18-22 27-47 27-73z m110-74c0-22-7-44-20-64-14-20-32-36-56-50 2-5 4-9 6-13 2-4 4-7 7-11 3-3 5-6 6-8 2-2 4-5 8-8 3-4 5-6 6-8 1 0 1 0 2-1 0-1 1-1 1-1 0-1 1-1 1-2 0 0 1-1 1-1l1-2 0-1 0-2 0-2c0-3-2-5-4-6-1-2-4-3-6-2-9 1-18 2-24 4-30 8-56 20-80 37-17-3-34-5-50-5-52 0-97 13-135 38 11-1 19-1 25-1 31 0 60 4 88 13 29 8 54 20 76 36 24 18 42 38 55 61 12 23 19 47 19 73 0 14-2 29-7 43 25-14 44-30 59-51 14-20 21-42 21-66z"/>
<glyph glyph-name="fontastic-apps" unicode="&#117;" d="M155 422l-54 0c-6 0-11-5-11-11l0-54c0-6 5-12 11-12l54 0c6 0 12 6 12 12l0 54c0 6-6 11-12 11z m128 0l-54 0c-6 0-11-5-11-11l0-54c0-6 5-12 11-12l54 0c6 0 11 6 11 12l0 54c0 6-5 11-11 11z m139-11c0 6-5 11-11 11l-54 0c-6 0-12-5-12-11l0-54c0 0 0 0 0 0 0-6 6-12 12-12l54 0c6 0 11 6 11 12l0 54z m-267-117l-54 0c-6 0-11-5-11-11l0-54c0-6 5-11 11-11l54 0c6 0 12 5 12 11l0 54c0 6-6 11-12 11z m128 0l-54 0c-6 0-11-5-11-11l0-54c0-6 5-11 11-11l54 0c6 0 11 5 11 11l0 54c0 6-5 11-11 11z m128 0l-54 0c-6 0-12-5-12-11l0-54c0 0 0 0 0 0 0-6 6-11 12-11l54 0c6 0 11 5 11 11l0 54c0 6-5 11-11 11z m-256-127l-54 0c-6 0-11-6-11-12l0-54c0-6 5-11 11-11l54 0c6 0 12 5 12 11l0 54c0 6-6 12-12 12z m128 0l-54 0c-6 0-11-6-11-12l0-54c0-6 5-11 11-11l54 0c6 0 11 5 11 11l0 54c0 6-5 12-11 12z m128 0l-54 0c-6 0-12-6-12-12l0-54c0-6 6-11 12-11l54 0c6 0 11 5 11 11l0 54c0 6-5 12-11 12z"/>
<glyph glyph-name="fontastic-rad" unicode="&#119;" d="M383 53l-84 146c-16-11-45-11-45-11 0 0-30 0-45 11l-85-146c0 0 50-38 131-38 81 0 128 38 128 38z m-128 170c28 0 50 22 50 50 0 28-22 50-50 50-27 0-50-22-50-50 0-28 23-50 50-50z m127 271l-84-146c17-9 32-34 32-34 0 0 14-26 13-45l168 0c0 0 9 62-32 133-40 70-97 92-97 92z m-381-222l168 0c-1 19 13 45 13 45 0 0 16 25 32 34l-83 146c0 0-58-24-99-95-41-70-31-130-31-130z"/>
<glyph glyph-name="fontastic-synthesis" unicode="&#120;" d="M99 383c-21 0-38 17-38 37 0 21 17 38 38 38 21 0 38-17 38-38 0-20-17-37-38-37z m122 31c-27 0-49 22-49 49 0 27 22 49 49 49 27 0 49-22 49-49 0-27-22-49-49-49z m140-70l110 0c8 0 15-7 15-15 0-8-7-14-15-14l-196 0c4 10 12 21 22 26 0 0 0 0 0 0 0 0 0 1 1 1 0 0 0 0 1 0 0 0 0 0 0 0 1 1 1 1 2 1 0 0 0 0 0 0 1 0 1 0 2 0 0 1 0 1 0 1 1 0 1 0 2 0 0 0 0 0 0 0 1 0 2 0 2 0z m-92 0c-6-7-12-17-16-27 0-1-1-1-1-1 0 0 0 0 0 0-4-10-6-18-6-19-1-1-1-1-1-1 0 0 0-1 0-1 0 0 0-1 0-1l0-45c0-7-6-13-13-13-7 0-13 6-13 13l0 35c0 1-1 2-1 2-3 16-17 27-33 27-16 0-31-11-34-27 0 0 0-1 0-2l0-94c0-7-6-13-14-13-7 0-13 6-13 13l0 104c0 0 0 1 0 1 0 0 0 0 0 1 0 0 0 0 0 0 0 0 0 0 0 0 0 0 0 0 0 0-1 2-3 10-7 20 0 0 0 0 0 1 0 0-1 0-1 0-4 11-10 20-15 27z m-229 0l22 0c1 0 1 0 2 0 0 0 0 0 0 0 1 0 2 0 2 0 0 0 0 0 0-1 1 0 1 0 2 0 0 0 0 0 1 0 0 0 0 0 1-1 0 0 0 0 1 0 0 0 0 0 1 0 0 0 0-1 1-1 0 0 0 0 0 0 9-5 17-16 22-26l-55 0c-8 0-14 6-14 13 0 9 6 16 14 16z m145-325c-14 0-25 12-25 26 0 1 0 3 0 5 0 0 1 0 1 1 1 6 5 13 8 21 0 0 1 0 1 0 0 1 1 2 1 3 0 0 0 0 0 1 5 8 10 17 14 24 0 0 1-1 1-1 0 0 0-1 0-1 1 0 1-1 1-1 0-1 1-1 1-1 0-1 0-1 0-1 1-1 1-1 1-2 0 0 1 0 1-1 0 0 0-1 1-1 0-1 0-1 0-1 1-1 1-1 1-2 0 0 0 0 1-1 0 0 0-1 0-1 1-1 1-1 1-1 0-1 1-1 1-2 0 0 0-1 1-1 0 0 0-1 0-1 1-1 1-1 1-2 0 0 1-1 1-1 0-1 0-1 0-1 1-1 1-2 1-2 1 0 1-1 1-1 0-1 1-2 1-3 0 0 0 0 1 0 0-1 0-2 0-2 1-1 1-1 1-1 0-1 0-1 1-2 0 0 0-1 0-1 0 0 1-1 1-1 0-1 0-1 0-2 1 0 1 0 1 0-1-1-1-2-1-3-2-6-3-11-4-16 0 0 0 0 0 0 0 0 0-1 0-1 0-1 0-1 0-2 0-1 0-2 0-3 0 0 0 0 0-1 0-1 0-1 0-2 0-1 0-1 0-1 1-2 1-4 2-6-5-5-11-8-18-8z m72-14c-15 0-28 9-33 22 0 1 0 1 0 1-1 3-2 6-2 9 0 0 0 0 0 1 0 0 0 0 0 1 0 0 0 1 0 1 0 2 0 7 4 18 0 0 0 0 0 0 8 19 22 43 31 57 8-14 21-36 29-54 0 0 0 0 0 0 4-10 6-16 6-19l0 0c0 0 0 0 0-1 0 0 0 0 0 0 0 0 0 0 0 0 0 0 0 0 0 0 0 0 0-1 0-1 0 0 0-1 0-1 0-1 0-1 0-1 0-4-1-8-3-12 0 0 0 0 0 0-5-12-18-21-32-21z m69 14c-6 0-11 2-15 6 0 0 0 0 0 0 0 1 0 2 0 3 0 0 1 0 1 1 0 0 0 0 0 1 0 0 0 1 0 1 0 1 0 1 0 1 0 1 0 2 1 3 0 0 0 0 0 0 0 1 0 1 0 2 0 0 0 1 0 1 0 1 0 1 0 2 0 1 0 2 0 2 0 1 0 1 0 1 0 1 0 1 0 2-1 5-3 12-6 20 0 0 0 0 0 1 0 0 1 0 1 1 0 0 0 1 0 1 1 0 1 1 1 1 0 1 0 1 1 2 0 0 0 0 0 1 0 0 1 1 1 1 0 0 0 1 0 1 1 1 1 1 1 2 1 0 1 1 1 1 0 0 0 1 1 2 0 0 0 0 0 1 1 0 1 1 1 1 0 1 1 1 1 1 0 1 0 1 0 2 1 0 1 0 1 1 0 0 1 1 1 1 0 0 0 1 0 1 1 1 1 1 1 1 0 1 1 1 1 1 0 1 0 1 0 2 1 0 1 0 1 1 0 0 0 1 1 1 0 0 0 1 0 1 1 0 1 1 1 1 0 0 0 1 1 1 0 0 0 1 0 1 0 0 1 1 1 1 0 0 0 1 0 1 0 0 1 1 1 1 6-10 13-22 18-33 5-11 8-19 8-22 0-14-12-26-26-26z m9 106c-1 1-1 1-2 2 0 0 0 0 0 0 0 0-1 0-1 1 0 0 0 0 0 0 0 0 0 0 0 0-2 1-4 2-6 2-1 0-1 0-1 0-3-1-6-2-8-5 0 0 0 0 0 0 0 0 0 0 0 0 0 0 0 0 0-1 0 0 0 0 0 0 0 0 0 0 0 0 0 0 0 0 0 0-1 0-1 0-1-1 0 0 0 0 0 0 0 0 0 0 0 0 0 0 0-1 0-1-1 0-1 0-1 0 0-1 0-1 0-1 0 0 0 0-1 0 0-1 0-1 0-1 0 0 0 0 0-1 0 0 0 0 0 0-1 0-1-1-1-1 0 0 0 0 0 0-1-1-1-1-1-1 0-1 0-1 0-1-1 0-1-1-1-1 0 0 0 0 0 0 0-1-1-1-1-2 0 0 0 0 0 0-1 0-1-1-1-1 0 0 0-1 0-1-1 0-1-1-1-1 0 0 0 0 0 0-1-1-1-2-1-2 0 0-1 0-1-1 0 0 0 0 0-1-1 0-1 0-1-1 0 0-1-1-1-1 0 0 0-1 0-1 0 0-1-1-1-1 0 0 0-1 0-1-1 0-1-1-1-1 0 0 0-1 0-1-1 0-1-1-2-2 0 0 0 0 0 0 0-1 0-1-1-2 0 0 0 0 0 0 0-1-1-2-1-2 0 0 0 0 0-1-1 0-1-1-1-2 0 0-1 0-1 0 0 0 0-1 0-1-12 23-26 45-30 51-1 1-1 2-2 2 0 0 0 0 0 0 0 0 0 1-1 1-1 1-3 2-6 2 0 0 0 0 0 0 0 0 0 0-1 0 0 0 0 0 0 0 0 0-1 0-1 0 0 0 0 0-1 0 0 0 0 0 0 0 0 0 0-1-1-1 0 0 0 0 0 0 0 0-1 0-1 0 0 0 0 0 0 0 0 0-1-1-1-1 0 0 0 0 0 0 0 0-1 0-1-1 0 0 0 0 0 0 0 0-1 0-1-1 0 0 0 0 0 0 0 0 0 0-1-1-4-7-19-30-31-54 0 1-1 1-1 1 0 0 0 0 0 1 0 0-1 1-1 2 0 0 0 0 0 0-1 1-1 1-1 2-1 0-1 1-1 1 0 0 0 1-1 1l0 1c0 1-1 1-1 2 0 0 0 0 0 0-1 1-1 2-1 2-1 0-1 1-1 1 0 0 0 1-1 2 0 0 0 0 0 0 0 1-1 1-1 2 0 0 0 0 0 0-1 1-1 1-1 2 0 0 0 0-1 0 0 1 0 2-1 2 0 0 0 0 0 0 0 1 0 1-1 2 0 0 0 0 0 1 0 0-1 0-1 1 0 0 0 0 0 0 0 1-1 1-1 2 0 0 0 0 0 0-1 1-1 1-1 1 0 1 0 1 0 1-1 0-1 1-1 1 0 0 0 0 0 0 0 1-1 1-1 2 0 0 0 0 0 0 0 0-1 0-1 1 0 0 0 0 0 0 0 0 0 1-1 1 0 0 0 0 0 0 0 1 0 1 0 1 0 0 0 0 0 0-1 1-1 1-1 1 0 0 0 0 0 0 0 0 0 1 0 1 0 0 0 0 0 0-1 0-1 0-1 0 0 0 0 0 0 0 0 1 0 1 0 1 0 0 0 0 0 0 0 0 0 0 0 0-2 3-5 5-9 5l0 0c0 0-1 0-2-1 0 0 0 0 0 0 0 0 0 0 0 0-3 0-5-2-6-4 0 0-1 0-1-1 0 0 0 0 0 0 0 0 0 0 0 0 0 0 0 0 0-1 0 0 0 0 0 0-2-2-5-6-8-12l0 0c0 0-1-1-1-1 0 0 0-1-1-1 0-1 0-1 0-1-2-4-5-9-8-13-7-13-11-22-14-29-6 2-11 4-16 6-1 0-1 0-1 0-16 7-31 16-43 26-1 0-1 0-2 1-32 26-48 64-48 111 0 29 5 58 17 84l52 0c0 0 0-1 0-2l0-102c0-18 16-33 34-33 19 0 34 15 34 33l0 93c2 5 8 9 14 9 6 0 11-4 13-9l0-34c0-18 15-33 34-33 19 0 34 15 34 33l0 43c0 1 0 2 0 2l194 0c12-26 18-54 18-83 0-39-11-72-33-97-6-6-12-12-19-17-1-1-1-1-2-2-1-1-2-1-2-2-1 0-2-1-2-1-1-1-2-2-3-2-1-1-2-1-2-2-1 0-2-1-3-1-1-1-2-2-3-2-1-1-1-1-2-2-1 0-2-1-3-1-1-1-2-1-3-1-1-1-2-2-4-3-1 0-2-1-4-2-1 0-2 0-3-1-1 0-2-1-3-1-1-1-2-1-2-1-6-3-12-5-18-7-1 2-1 3-2 5-10 22-26 47-30 54z m94 240l-73 0 61 89c10 13 28 17 42 8l1-1c13-9 17-28 7-41z m17-279l11-39c2-9 1-19-4-27-4-8-12-14-21-16l-2-1c-3-1-6-1-9-1-16 0-30 10-34 26l-6 21c26 9 47 22 65 37z m-381 0c18-15 39-28 65-37l-5-21c-5-16-19-26-35-26-3 0-6 0-9 1l-2 1c-9 2-16 8-21 16-5 8-6 18-4 27z"/>
<glyph glyph-name="fontastic-contribs" unicode="&#121;" d="M75 147l4-29c1-2 0-3 0-5l-32-81c-4-10 0-23 10-29 2-1 4-2 6-2 11-2 21 3 26 13l19 44-5 52z m136 102l-40 5c0 0-25 37-28 41-3 4-8 13-14 17-8 5-18 8-28 6-13-3-23-14-25-28l-10-91c0-5 1-10 4-15l47-64c2-3 4-6 4-10l8-87c1-11 8-21 19-23 2-1 4-1 7 0 10 2 19 10 18 21l-4 103c0 3-2 6-3 9 0 0-28 53-30 57-1 2-1 6-1 8 0 2 3 39 3 39l7-11c4-4 8-7 13-8l49-6c2 0 4 0 6 0 8 1 15 8 15 18 0 10-7 18-17 19z m-61 118c0-22-17-39-39-39-22 0-39 17-39 39 0 22 17 39 39 39 22 0 39-17 39-39z m317-336l-31 82c-1 1-1 3-1 4l4 29-26-37c0 0 0 0-1 0l-5-51 19-45c4-10 15-15 25-13 2 1 4 1 6 2 11 6 14 19 10 29z m-18 169l-10 91c-2 14-12 24-25 28-10 1-20-1-28-6-6-5-11-13-14-17-3-4-28-41-28-41l-40-5c-10-2-17-10-17-19 0-9 7-17 15-18 2 0 3 0 6 0l49 6c5 1 9 4 13 8l7 11c0 0 3-36 3-39 0-2 0-6-1-8-2-4-30-58-30-58-2-3-2-5-2-8l-5-103c0-11 9-20 19-21 2-1 4-1 6 0 12 1 18 11 19 23l8 87c1 4 2 7 4 10l47 63c3 5 4 11 4 16z m-5 167c0-22-18-39-40-39-21 0-39 17-39 39 0 22 18 40 39 40 22 0 40-18 40-40z m-312 65c4 0 8 2 11 5 23 30 67 48 114 48 37 0 71-10 95-28l-19-1c-7 0-13-6-13-14 0-7 6-13 13-13 0 0 0 0 1 0l51 2c4 0 7 1 10 4 3 3 4 6 4 10l-2 51c0 7-6 13-14 13-8 0-13-6-13-14l1-18c-30 23-70 35-114 35-56 0-107-22-136-58-5-6-4-14 2-19 3-2 6-3 9-3z m192-133c0 15-12 26-26 26-7 0-14-3-18-8l-44 21c0 2 0 3 0 4 0 2 0 3 0 4l44 22c4-5 11-9 18-9 15 0 26 12 26 26 0 14-12 26-26 26-14 0-25-12-25-26 0 0 0-1 0-1l-46-22c-4 4-10 7-16 7-15 0-26-12-26-26 0-15 12-26 26-26 6 0 12 2 16 6l46-22c0 0 0-1 0-1 0-14 11-26 25-26 14-1 26 11 26 25z"/>
<glyph glyph-name="fontastic-periodic-table-squares" unicode="&#118;" d="M0 409l25 0 0-25-25 0z m0-31l25 0 0-25-25 0z m31 0l25 0 0-25-25 0z m-31-31l25 0 0-25-25 0z m31 0l25 0 0-25-25 0z m-31-32l25 0 0-25-25 0z m31 0l25 0 0-25-25 0z m-31-31l25 0 0-25-25 0z m31 0l25 0 0-25-25 0z m-31-31l25 0 0-25-25 0z m31 0l25 0 0-25-25 0z m-31-31l25 0 0-25-25 0z m31 0l25 0 0-25-25 0z m31 93l25 0 0-25-25 0z m0-31l25 0 0-25-25 0z m0-31l25 0 0-25-25 0z m0-31l25 0 0-25-25 0z m50 93l25 0 0-25-25 0z m0-31l25 0 0-25-25 0z m0-31l25 0 0-25-25 0z m0-31l25 0 0-25-25 0z m0-63l25 0 0-25-25 0z m0-31l25 0 0-25-25 0z m32 187l25 0 0-25-25 0z m0-31l25 0 0-25-25 0z m0-31l25 0 0-25-25 0z m0-31l25 0 0-25-25 0z m0-63l25 0 0-25-25 0z m0-31l25 0 0-25-25 0z m31 187l25 0 0-25-25 0z m0-31l25 0 0-25-25 0z m0-31l25 0 0-25-25 0z m0-31l25 0 0-25-25 0z m0-63l25 0 0-25-25 0z m0-31l25 0 0-25-25 0z m31 187l25 0 0-25-25 0z m0-31l25 0 0-25-25 0z m0-31l25 0 0-25-25 0z m0-31l25 0 0-25-25 0z m0-63l25 0 0-25-25 0z m0-31l25 0 0-25-25 0z m31 187l25 0 0-25-25 0z m0-31l25 0 0-25-25 0z m0-31l25 0 0-25-25 0z m0-31l25 0 0-25-25 0z m0-63l25 0 0-25-25 0z m0-31l25 0 0-25-25 0z m31 187l25 0 0-25-25 0z m0-31l25 0 0-25-25 0z m0-31l25 0 0-25-25 0z m0-31l25 0 0-25-25 0z m0-63l25 0 0-25-25 0z m0-31l25 0 0-25-25 0z m32 187l25 0 0-25-25 0z m0-31l25 0 0-25-25 0z m0-31l25 0 0-25-25 0z m0-31l25 0 0-25-25 0z m0-63l25 0 0-25-25 0z m0-31l25 0 0-25-25 0z m31 250l25 0 0-25-25 0z m0-31l25 0 0-25-25 0z m0-32l25 0 0-25-25 0z m0-31l25 0 0-25-25 0z m0-31l25 0 0-25-25 0z m0-31l25 0 0-25-25 0z m0-63l25 0 0-25-25 0z m0-31l25 0 0-25-25 0z m31 250l25 0 0-25-25 0z m0-31l25 0 0-25-25 0z m0-32l25 0 0-25-25 0z m0-31l25 0 0-25-25 0z m0-31l25 0 0-25-25 0z m0-31l25 0 0-25-25 0z m0-63l25 0 0-25-25 0z m0-31l25 0 0-25-25 0z m31 250l25 0 0-25-25 0z m0-31l25 0 0-25-25 0z m0-32l25 0 0-25-25 0z m0-31l25 0 0-25-25 0z m0-31l25 0 0-25-25 0z m0-31l25 0 0-25-25 0z m0-63l25 0 0-25-25 0z m0-31l25 0 0-25-25 0z m32 250l25 0 0-25-25 0z m0-31l25 0 0-25-25 0z m0-32l25 0 0-25-25 0z m0-31l25 0 0-25-25 0z m0-31l25 0 0-25-25 0z m0-31l25 0 0-25-25 0z m0-63l25 0 0-25-25 0z m0-31l25 0 0-25-25 0z m31 250l25 0 0-25-25 0z m0-31l25 0 0-25-25 0z m0-32l25 0 0-25-25 0z m0-31l25 0 0-25-25 0z m0-31l25 0 0-25-25 0z m0-31l25 0 0-25-25 0z m0-63l25 0 0-25-25 0z m0-31l25 0 0-25-25 0z m31 281l25 0 0-25-25 0z m0-31l25 0 0-25-25 0z m0-31l25 0 0-25-25 0z m0-32l25 0 0-25-25 0z m0-31l25 0 0-25-25 0z m0-31l25 0 0-25-25 0z m0-31l25 0 0-25-25 0z"/>
<glyph glyph-name="fontastic-periodic-table-solid" unicode="&#122;" d="M90 196l-90 0 0 205 30 0 0-31 30 0 0-60 30 0z m422 0l-392 0 0 114 211 0 0 60 151 0 0 31 30 0z m-392-30l362 0 0-55-362 0z"/>
</font>
</defs>
</svg>
